<svg width="80" height="80" viewBox="0 0 80 80" fill="none" xmlns="http://www.w3.org/2000/svg">
<path d="M29.3333 47.1111C29.3333 53.0027 38.8836 57.7778 50.6667 57.7778C62.4498 57.7778 72 53.0027 72 47.1111M29.3333 47.1111C29.3333 41.2196 38.8836 36.4444 50.6667 36.4444C62.4498 36.4444 72 41.2196 72 47.1111M29.3333 47.1111V61.3333C29.3333 67.2213 38.8836 72 50.6667 72C62.4498 72 72 67.2213 72 61.3333V47.1111M8 18.6667C8 22.4782 12.0676 25.9982 18.6667 27.904C25.2658 29.8098 33.4009 29.8098 40 27.904C46.5991 25.9982 50.6667 22.4782 50.6667 18.6667C50.6667 14.8551 46.5991 11.3351 40 9.42933C33.4009 7.52356 25.2658 7.52356 18.6667 9.42933C12.0676 11.3351 8 14.8551 8 18.6667ZM8 18.6667V54.2222C8 57.3796 10.7449 59.3778 15.1111 61.3333M8 36.4444C8 39.6018 10.7449 41.6 15.1111 43.5556" stroke="black" stroke-opacity="0.25" stroke-width="4" stroke-linecap="round" stroke-linejoin="round"/>
</svg>
