<svg width="80" height="80" viewBox="0 0 80 80" fill="none" xmlns="http://www.w3.org/2000/svg">
<path d="M66.6825 42.503L40.0296 68.9L13.3768 42.503C11.6188 40.7923 10.234 38.7361 9.3097 36.4639C8.3854 34.1918 7.94157 31.7528 8.00616 29.3007C8.07075 26.8486 8.64237 24.4364 9.68501 22.216C10.7276 19.9957 12.2187 18.0152 14.0644 16.3995C15.91 14.7837 18.0702 13.5675 20.4089 12.8276C22.7476 12.0877 25.2142 11.8401 27.6533 12.1002C30.0925 12.3604 32.4513 13.1228 34.5813 14.3395C36.7113 15.5561 38.5664 17.2005 40.0296 19.1693C41.4992 17.2148 43.3564 15.5847 45.4849 14.381C47.6135 13.1773 49.9676 12.4259 52.3998 12.1739C54.8321 11.9218 57.2903 12.1745 59.6204 12.9161C61.9506 13.6578 64.1026 14.8724 65.9417 16.484C67.7808 18.0955 69.2675 20.0694 70.3087 22.282C71.35 24.4945 71.9233 26.8982 71.9928 29.3425C72.0623 31.7869 71.6266 34.2192 70.7129 36.4874C69.7991 38.7556 68.427 40.8108 66.6825 42.5243M40.0293 19.148L28.3269 30.8504C27.6607 31.5168 27.2864 32.4205 27.2864 33.3628C27.2864 34.3052 27.6607 35.2089 28.3269 35.8753L30.2566 37.805C32.7087 40.2571 36.6888 40.2571 39.1409 37.805L42.6946 34.2513C44.8152 32.1307 47.6914 30.9393 50.6904 30.9393C53.6895 30.9393 56.5657 32.1307 58.6863 34.2513L66.6822 42.2471M41.8063 52.9083L48.9137 60.0157M50.6906 44.024L57.798 51.1314" stroke="black" stroke-opacity="0.25" stroke-width="4" stroke-linecap="round" stroke-linejoin="round"/>
</svg>
