<svg width="80" height="80" viewBox="0 0 80 80" fill="none" xmlns="http://www.w3.org/2000/svg">
<path d="M13 66.8421V60.5263C13 57.1762 14.4223 53.9634 16.9539 51.5945C19.4856 49.2256 22.9192 47.8948 26.4995 47.8948H28.1869M19.7497 22.6316C19.7497 25.9817 21.172 29.1946 23.7036 31.5635C26.2353 33.9324 29.6689 35.2632 33.2492 35.2632C36.8295 35.2632 40.2632 33.9324 42.7948 31.5635C45.3264 29.1946 46.7487 25.9817 46.7487 22.6316C46.7487 19.2815 45.3264 16.0686 42.7948 13.6997C40.2632 11.3308 36.8295 10 33.2492 10C29.6689 10 26.2353 11.3308 23.7036 13.6997C21.172 16.0686 19.7497 19.2815 19.7497 22.6316ZM53.4984 70L64.8043 59.6295C65.4976 58.9999 66.0491 58.2468 66.4262 57.4146C66.8033 56.5823 66.9984 55.6878 67 54.7838C67.0016 53.8799 66.8096 52.9848 66.4353 52.1514C66.0611 51.318 65.5122 50.5632 64.8211 49.9316C63.4109 48.6411 61.5178 47.9169 59.5453 47.9133C57.5727 47.9098 55.6767 48.6272 54.2612 49.9126L53.5052 50.6074L52.7526 49.9126C51.3425 48.6231 49.4501 47.8995 47.4784 47.8959C45.5067 47.8924 43.6114 48.6092 42.196 49.8937C41.5025 50.523 40.9507 51.2759 40.5733 52.1081C40.1959 52.9402 40.0005 53.8347 39.9986 54.7386C39.9967 55.6426 40.1884 56.5378 40.5623 57.3713C40.9362 58.2048 41.4848 58.9597 42.1757 59.5916L53.4984 70Z" stroke="black" stroke-opacity="0.25" stroke-width="4" stroke-linecap="round" stroke-linejoin="round"/>
</svg>
