<svg width="80" height="80" viewBox="0 0 80 80" fill="none" xmlns="http://www.w3.org/2000/svg">
<path d="M20.1629 47.3825C16.0129 49.579 12.6571 52.8874 10.5258 56.8836C8.39453 60.8797 7.58483 65.3816 8.20051 69.812C12.9263 70.3892 17.7283 69.6301 21.9909 67.632C26.2534 65.6339 29.7824 62.4879 32.1253 58.5973M8.20054 43.6443C15.3106 44.4364 21.9296 47.4481 26.9925 52.1945C32.0554 56.941 35.2678 63.1464 36.1128 69.812C39.6374 67.907 42.5856 65.1909 44.6788 61.9203C46.772 58.6498 47.9409 54.9328 48.0752 51.1208C54.7706 48.9126 60.6172 44.8928 64.8758 39.5696C69.1343 34.2464 71.6136 27.8589 72 21.2148C72 18.2404 70.7397 15.3879 68.4963 13.2847C66.2529 11.1816 63.2102 10 60.0376 10C52.9505 10.3623 46.1372 12.6866 40.4591 16.679C34.781 20.6714 30.4932 26.1526 28.1379 32.4295C24.0717 32.5554 20.1069 33.6513 16.6183 35.6136C13.1297 37.576 10.2325 40.3399 8.20054 43.6443ZM48.0752 28.6913C48.0752 29.6827 48.4953 30.6335 49.2431 31.3346C49.9909 32.0357 51.0051 32.4295 52.0627 32.4295C53.1202 32.4295 54.1344 32.0357 54.8822 31.3346C55.63 30.6335 56.0501 29.6827 56.0501 28.6913C56.0501 27.6998 55.63 26.749 54.8822 26.0479C54.1344 25.3469 53.1202 24.953 52.0627 24.953C51.0051 24.953 49.9909 25.3469 49.2431 26.0479C48.4953 26.749 48.0752 27.6998 48.0752 28.6913Z" stroke="black" stroke-opacity="0.25" stroke-width="4" stroke-linecap="round" stroke-linejoin="round"/>
</svg>
