<svg width="11" height="12" viewBox="0 0 11 12" fill="none" xmlns="http://www.w3.org/2000/svg">
<path d="M5.2279 11C4.69194 11 4.26465 10.6039 4.28972 10.1304L4.32517 9.46074C4.36597 8.69018 3.36176 8.23581 2.67922 8.71601C2.16764 9.07594 1.41042 8.9206 1.13018 8.39823L1.10302 8.34761C0.868988 7.91136 1.0456 7.38923 1.51205 7.13836L2.02171 6.86425C2.75428 6.47027 2.75428 5.52973 2.02171 5.13575L1.51205 4.86164C1.0456 4.61077 0.868988 4.08864 1.10302 3.65239L1.13018 3.60177C1.41042 3.0794 2.16764 2.92406 2.67922 3.28399C3.36176 3.76419 4.36597 3.30982 4.32517 2.53926L4.28972 1.86961C4.26465 1.39606 4.69194 1 5.2279 1C5.7631 1 6.19011 1.395 6.16616 1.86793L6.13208 2.54102C6.09303 3.31212 7.098 3.76569 7.78095 3.2852C8.29341 2.92465 9.05192 3.08026 9.33265 3.60353L9.35857 3.65184C9.59269 4.08826 9.41562 4.6106 8.94864 4.86107L8.4377 5.1351C7.70355 5.52886 7.70355 6.47113 8.4377 6.86489L8.94864 7.13893C9.41562 7.3894 9.59269 7.91174 9.35857 8.34816L9.33265 8.39647C9.05192 8.91974 8.29341 9.07535 7.78095 8.7148C7.098 8.23431 6.09303 8.68788 6.13208 9.45898L6.16616 10.1321C6.19011 10.605 5.7631 11 5.2279 11Z" stroke="white" stroke-width="1.5"/>
</svg>
