<svg width="200" height="40" viewBox="0 0 200 40" fill="none" xmlns="http://www.w3.org/2000/svg">
<rect y="0.0593262" width="39.8954" height="39.8813" rx="12.762" fill="#A5F04B"/>
<path d="M17.921 33.523H17.8592C13.6662 33.4955 10.2692 30.373 10.2692 26.5505V25.0956C10.2692 23.1192 9.1986 21.3898 7.97705 21.3898V18.6104C9.1986 18.6104 10.2692 16.8742 10.2692 14.9046V13.4497C10.2692 9.62038 13.6662 6.50475 17.8592 6.47729H17.921V9.25666C15.2377 9.25666 13.0485 11.137 13.0485 13.4497V14.9046C13.0485 16.9977 12.3142 18.8232 11.1476 20.0036C12.3142 21.1839 13.0485 23.0094 13.0485 25.1025V26.5574C13.0485 28.8701 15.2309 30.7504 17.921 30.7504V33.5298V33.523Z" fill="#6C1EFF"/>
<path d="M22.0376 33.5227H21.9758V30.7434C24.6591 30.7434 26.8483 28.863 26.8483 26.5503V25.0954C26.8483 23.0023 27.5826 21.1768 28.7493 19.9965C27.5826 18.8161 26.8483 16.9906 26.8483 14.8975V13.4427C26.8483 11.1299 24.666 9.24959 21.9758 9.24959V6.47021H22.0376C26.2307 6.49767 29.6277 9.62017 29.6277 13.4427V14.8975C29.6277 16.874 30.6982 18.6034 31.9198 18.6034V21.3827C30.6982 21.3827 29.6277 23.119 29.6277 25.0886V26.5434C29.6277 30.3728 26.2307 33.4884 22.0376 33.5159V33.5227Z" fill="#6C1EFF"/>
<path d="M23.3895 19.9964C24.1703 19.9964 24.8032 19.3757 24.8032 18.6101C24.8032 17.8445 24.1703 17.2239 23.3895 17.2239C22.6088 17.2239 21.9758 17.8445 21.9758 18.6101C21.9758 19.3757 22.6088 19.9964 23.3895 19.9964Z" fill="#6C1EFF"/>
<path d="M16.5009 19.9964C17.2816 19.9964 17.9146 19.3757 17.9146 18.6101C17.9146 17.8445 17.2816 17.2239 16.5009 17.2239C15.7201 17.2239 15.0872 17.8445 15.0872 18.6101C15.0872 19.3757 15.7201 19.9964 16.5009 19.9964Z" fill="#6C1EFF"/>
<path d="M64.8726 20.0022C64.8726 18.6026 65.0756 17.2938 65.4816 16.0713C65.8877 14.8488 66.4925 13.7775 67.2959 12.8617C68.0994 11.9459 69.0973 11.2202 70.2938 10.6846C71.4904 10.1489 72.8641 9.8811 74.4192 9.8811C75.9743 9.8811 77.3652 10.1489 78.5229 10.6846C79.6806 11.2202 80.6352 11.9459 81.3869 12.8617C82.1385 13.7775 82.6958 14.8488 83.0673 16.0713C83.4344 17.2938 83.6202 18.6026 83.6202 20.0022V20.7279C83.5943 20.8532 83.5813 20.9828 83.5813 21.1081H70.0649C70.1945 22.5854 70.5919 23.8165 71.2701 24.8144C71.944 25.8079 73.0584 26.3047 74.6135 26.3047C75.4041 26.3047 76.0304 26.1449 76.5056 25.8252C76.9764 25.5099 77.3523 25.1729 77.633 24.8144C77.9397 24.3824 78.1557 23.8857 78.281 23.3241H83.4344C83.1537 24.5984 82.6439 25.7302 81.9052 26.7237C81.2702 27.5617 80.3588 28.3393 79.1752 29.0521C77.9916 29.7648 76.4062 30.119 74.4235 30.119C72.8209 30.119 71.4169 29.8512 70.2247 29.3156C69.0281 28.7799 68.0346 28.0542 67.2484 27.1384C66.4579 26.2226 65.8661 25.1513 65.473 23.9289C65.0799 22.7064 64.8812 21.3975 64.8812 19.9979L64.8726 20.0022ZM74.4192 13.6997C73.1448 13.6997 72.1772 14.0885 71.5163 14.8661C70.8554 15.6436 70.4234 16.6156 70.2161 17.7862H78.3112C78.1341 16.6156 77.7626 15.6436 77.2054 14.8661C76.6438 14.0928 75.7151 13.6997 74.4192 13.6997Z" fill="#333333"/>
<path d="M92.747 15.9546L96.2201 10.4556H102.294L95.6888 19.6177L102.829 29.5488H96.7946L92.747 23.324L88.6995 29.5488H82.6648L89.8053 19.6177L83.2004 10.4556H89.274L92.7514 15.9546H92.747Z" fill="#333333"/>
<path d="M104.165 10.4559H113.332C118.373 10.4559 120.891 12.1752 120.891 15.6093C120.891 16.3739 120.74 17.0089 120.433 17.5187C120.126 18.0284 119.798 18.4215 119.44 18.7023C119.008 19.0349 118.511 19.2898 117.949 19.4669V19.6181C118.584 19.7952 119.172 20.0759 119.707 20.4561C120.139 20.7887 120.532 21.2379 120.891 21.8125C121.245 22.3827 121.427 23.13 121.427 24.0458C121.427 25.8773 120.818 27.251 119.595 28.1668C118.373 29.0826 116.476 29.5405 113.906 29.5405H104.169V10.4473L104.165 10.4559ZM112.986 18.0932C114.817 18.0932 115.733 17.4193 115.733 16.0672C115.733 14.7152 114.93 14.0802 113.327 14.0802H109.318V18.0889H112.986V18.0932ZM109.318 21.3373V25.9205H113.712C115.418 25.9205 116.269 25.1689 116.269 23.67C116.269 22.9313 116.005 22.3611 115.487 21.9507C114.964 21.5447 114.247 21.3373 113.332 21.3373H109.323H109.318Z" fill="#333333"/>
<path d="M140.749 29.2591H135.785V26.1273H135.595C135.237 26.8142 134.792 27.4276 134.261 27.9632C133.777 28.447 133.172 28.879 132.446 29.2634C131.721 29.6436 130.822 29.8336 129.755 29.8336C128.429 29.8336 127.332 29.6306 126.45 29.2246C125.574 28.8185 124.874 28.2569 124.351 27.5442C123.828 26.8314 123.466 25.9891 123.263 25.0258C123.059 24.0582 122.956 23.0258 122.956 21.9329V10.1746H128.075V20.827C128.075 22.4815 128.321 23.6953 128.818 24.4729C129.314 25.2504 130.174 25.6392 131.397 25.6392C132.77 25.6392 133.816 25.2029 134.528 24.3217C135.241 23.4404 135.6 22.0365 135.6 20.1013V10.1746H140.753V29.2678L140.749 29.2591Z" fill="#333333"/>
<path d="M148.916 10.4556H154.721L161.594 29.5488H156.095L151.702 15.9935L147.274 29.5488H142.082L148.916 10.4556Z" fill="#333333"/>
<path d="M169.194 10.4556H175L181.873 29.5488H176.374L171.98 15.9935L167.553 29.5488H162.36L169.194 10.4556Z" fill="#333333"/>
<path d="M46.2764 10.7622V14.7709H52.1555V24.702V29.8554H57.3133V23.7862V14.7709H63.5337V10.7622H46.2764Z" fill="#333333"/>
</svg>
