<svg width="1184" height="132" viewBox="0 0 1184 132" fill="none" xmlns="http://www.w3.org/2000/svg">
<g opacity="0.2">
<path d="M1128.73 97.3762L1129.11 90.2345C1129.54 82.0163 1118.81 77.1704 1111.52 82.2918C1106.05 86.1305 1097.96 84.4738 1094.96 78.9026L1094.67 78.3628C1092.17 73.7102 1094.06 68.1416 1099.04 65.4661L1104.49 62.5427C1112.32 58.3408 1112.32 48.3099 1104.49 44.108L1099.04 41.1847C1094.06 38.5091 1092.17 32.9405 1094.67 28.288L1094.96 27.7481C1097.96 22.177 1106.05 20.5202 1111.52 24.3589C1118.81 29.4803 1129.54 24.6344 1129.11 16.4163L1128.73 9.27451C1128.46 4.22406 1133.03 0 1138.76 0C1144.47 0 1149.04 4.21269 1148.78 9.25651L1148.42 16.4351C1148 24.6589 1158.74 29.4963 1166.04 24.3718C1171.52 20.5265 1179.62 22.1861 1182.62 27.7668L1182.9 28.2821C1185.4 32.9366 1183.51 38.5074 1178.52 41.1786L1173.06 44.1012C1165.21 48.3007 1165.21 58.3501 1173.06 62.5495L1178.52 65.4722C1183.51 68.1434 1185.4 73.7142 1182.9 78.3686L1182.62 78.8839C1179.62 84.4646 1171.52 86.1242 1166.04 82.2789C1158.74 77.1545 1148 81.9919 1148.42 90.2157L1148.78 97.3942C1149.04 102.438 1144.47 106.651 1138.76 106.651C1133.03 106.651 1128.46 102.427 1128.73 97.3762Z" fill="white"/>
<path d="M965.359 161.643V198.91H992.911V161.643H987.066V41.509H992.911V4.24179H965.359V41.509H971.203V161.643H965.359Z" fill="white"/>
<path d="M992.911 41.509V63.6269C999.438 63.6269 1004.9 65.369 1009.31 68.8534C1013.76 72.2872 1017.1 76.8825 1019.32 82.6392C1021.55 88.3959 1022.66 94.7333 1022.66 101.651C1022.66 106.853 1022.03 111.751 1020.77 116.346C1019.5 120.891 1017.6 124.906 1015.07 128.39C1012.59 131.874 1009.51 134.601 1005.81 136.571C1002.12 138.54 997.819 139.525 992.911 139.525V161.643C1001.46 161.643 1009.28 160.203 1016.36 157.325C1023.45 154.447 1029.55 150.356 1034.66 145.054C1039.82 139.752 1043.79 133.44 1046.57 126.118C1049.41 118.745 1050.82 110.59 1050.82 101.651C1050.82 92.7134 1049.41 84.5581 1046.57 77.1854C1043.79 69.8128 1039.82 63.4754 1034.66 58.1731C1029.55 52.8204 1023.45 48.7049 1016.36 45.8265C1009.28 42.9481 1001.46 41.509 992.911 41.509Z" fill="white"/>
<path d="M992.911 63.6269V41.509H987.066V161.643H992.911V139.525H989.495V63.6269H992.911Z" fill="white"/>
<path d="M965.359 161.643V139.525C958.882 139.525 953.417 137.808 948.964 134.374C944.561 130.94 941.222 126.37 938.945 120.664C936.668 114.907 935.529 108.57 935.529 101.651C935.529 96.4502 936.162 91.5772 937.427 87.0325C938.742 82.4372 940.64 78.3974 943.119 74.9131C945.649 71.3782 948.761 68.6261 952.455 66.6567C956.2 64.6368 960.501 63.6269 965.359 63.6269V41.509C956.807 41.509 948.989 42.9481 941.905 45.8265C934.821 48.7049 928.698 52.8204 923.537 58.1731C918.426 63.4754 914.454 69.8128 911.62 77.1854C908.837 84.5581 907.445 92.7134 907.445 101.651C907.445 110.59 908.837 118.745 911.62 126.118C914.454 133.44 918.426 139.752 923.537 145.054C928.698 150.356 934.821 154.447 941.905 157.325C948.989 160.203 956.807 161.643 965.359 161.643Z" fill="white"/>
<path d="M965.359 139.525V161.643H971.203V41.509H965.359V63.6269H968.774V139.525H965.359Z" fill="white"/>
<path d="M815.634 154.371C824.135 159.219 834.23 161.643 845.919 161.643C854.976 161.643 863.022 160.279 870.055 157.552C877.089 154.775 882.858 150.887 887.361 145.887C891.915 140.838 895.002 134.929 896.621 128.163L870.966 125.284C869.752 128.567 867.956 131.319 865.577 133.541C863.199 135.763 860.391 137.454 857.152 138.616C853.914 139.727 850.296 140.282 846.298 140.282C840.327 140.282 835.115 139.02 830.662 136.495C826.209 133.919 822.743 130.233 820.264 125.436C817.868 120.752 816.63 115.172 816.549 108.696H802.199V90.2138H816.601C816.865 85.6555 818.035 81.439 820.112 77.5642C822.49 73.1709 825.805 69.6361 830.055 66.9597C834.306 64.2328 839.239 62.8694 844.856 62.8694C850.119 62.8694 854.723 64.0561 858.67 66.4295C862.668 68.8029 865.78 72.06 868.006 76.2008C870.233 80.291 871.371 84.9621 871.422 90.2138H816.601C816.569 90.7643 816.55 91.3198 816.545 91.8802V108.014C816.545 108.243 816.546 108.47 816.549 108.696H897.76V100.288C897.76 90.0876 896.343 81.301 893.509 73.9284C890.675 66.5052 886.779 60.395 881.82 55.5978C876.912 50.8005 871.245 47.2657 864.818 44.9933C858.443 42.6704 851.662 41.509 844.477 41.509C833.344 41.509 823.654 44.0591 815.406 49.1593C807.158 54.2091 800.732 61.2787 796.127 70.3683C791.573 79.4073 789.296 89.9108 789.296 101.879C789.296 114.049 791.573 124.628 796.127 133.616C800.681 142.554 807.183 149.473 815.634 154.371Z" fill="white"/>
<path d="M802.199 90.2138V108.696H816.549C816.546 108.47 816.545 108.243 816.545 108.014V91.8802C816.55 91.3198 816.569 90.7643 816.601 90.2138H802.199Z" fill="white"/>
<path d="M622.304 43.0239H648.793V136.798H685.454V43.0239H711.944V136.798H748.604V43.0239H775.094V159.37H622.304V43.0239Z" fill="white"/>
<path fill-rule="evenodd" clip-rule="evenodd" d="M497.266 203V43.0239H524.287V62.2634H525.881C527.298 59.4356 529.297 56.431 531.877 53.2496C534.458 50.0178 537.949 47.2657 542.352 44.9933C546.754 42.6704 552.371 41.509 559.202 41.509C568.209 41.509 576.33 43.8066 583.566 48.4019C590.853 52.9466 596.622 59.6881 600.872 68.6261C605.173 77.5137 607.324 88.4211 607.324 101.349C607.324 114.124 605.224 124.981 601.024 133.919C596.824 142.857 591.106 149.675 583.87 154.371C576.634 159.067 568.437 161.415 559.278 161.415C552.598 161.415 547.058 160.304 542.655 158.082C538.253 155.861 534.711 153.184 532.029 150.053C529.398 146.872 527.348 143.867 525.881 141.04H524.742V203H497.266ZM527.399 120.967C525.274 115.311 524.211 108.721 524.211 101.197C524.211 93.6729 525.249 87.1335 527.323 81.5787C529.448 76.024 532.56 71.7065 536.659 68.6261C540.758 65.5458 545.742 64.0056 551.612 64.0056C557.734 64.0056 562.845 65.5963 566.944 68.7776C571.043 71.959 574.129 76.3522 576.204 81.9575C578.279 87.5627 579.316 93.9759 579.316 101.197C579.316 108.469 578.253 114.958 576.128 120.664C574.053 126.32 570.967 130.789 566.868 134.071C562.769 137.303 557.684 138.919 551.612 138.919C545.793 138.919 540.834 137.353 536.735 134.222C532.687 131.041 529.575 126.623 527.399 120.967Z" fill="white"/>
<path d="M400.445 154.371C408.946 159.219 419.041 161.643 430.73 161.643C439.787 161.643 447.833 160.279 454.867 157.552C461.9 154.775 467.669 150.887 472.172 145.887C476.726 140.838 479.813 134.929 481.432 128.163L455.777 125.284C454.563 128.567 452.767 131.319 450.388 133.541C448.01 135.763 445.202 137.454 441.963 138.616C438.725 139.727 435.107 140.282 431.109 140.282C425.138 140.282 419.926 139.02 415.474 136.495C411.021 133.919 407.554 130.233 405.075 125.436C402.679 120.752 401.441 115.172 401.36 108.696H387.01V90.2138H401.412C401.676 85.6555 402.846 81.439 404.923 77.5642C407.301 73.1709 410.616 69.6361 414.866 66.9597C419.117 64.2328 424.05 62.8694 429.667 62.8694C434.93 62.8694 439.534 64.0561 443.481 66.4295C447.479 68.8029 450.591 72.06 452.817 76.2008C455.044 80.291 456.182 84.9621 456.233 90.2138H401.412C401.38 90.7643 401.361 91.3198 401.356 91.8802V108.014C401.356 108.243 401.357 108.47 401.36 108.696H482.571V100.288C482.571 90.0876 481.154 81.301 478.32 73.9284C475.487 66.5052 471.59 60.395 466.631 55.5978C461.723 50.8005 456.056 47.2657 449.629 44.9933C443.254 42.6704 436.473 41.509 429.288 41.509C418.155 41.509 408.465 44.0591 400.217 49.1593C391.969 54.2091 385.543 61.2787 380.938 70.3683C376.384 79.4073 374.107 89.9108 374.107 101.879C374.107 114.049 376.384 124.628 380.938 133.616C385.492 142.554 391.995 149.473 400.445 154.371Z" fill="white"/>
<path d="M387.01 90.2138V108.696H401.36C401.357 108.47 401.356 108.243 401.356 108.014V91.8802C401.361 91.3198 401.38 90.7643 401.412 90.2138H387.01Z" fill="white"/>
<path fill-rule="evenodd" clip-rule="evenodd" d="M351.689 0L361.252 17.7246C357.862 20.6535 354.067 22.7744 349.867 24.0873C345.667 25.4003 340.734 26.2587 335.066 26.6627C329.449 27.0162 322.77 27.2687 315.028 27.4201C306.325 27.6221 299.215 29.2633 293.7 32.3437C288.184 35.424 283.959 40.095 281.024 46.3567C278.089 52.5679 276.166 60.496 275.256 70.141H276.546C280.189 63.0209 285.3 57.5924 291.878 53.8556C298.456 50.1188 306.173 48.2504 315.028 48.2504C324.693 48.2504 333.219 50.4218 340.607 54.7646C348.045 59.0569 353.839 65.2933 357.989 73.4739C362.188 81.6545 364.288 91.552 364.288 103.166C364.288 115.134 362.037 125.512 357.533 134.298C353.03 143.034 346.629 149.776 338.33 154.522C330.082 159.269 320.291 161.643 308.956 161.643C297.672 161.643 287.855 159.193 279.506 154.295C271.207 149.346 264.781 142.049 260.227 132.404C255.724 122.709 253.472 110.766 253.472 96.5765V86.1235C253.472 58.7539 258.582 38.3276 268.804 24.8448C279.025 11.3619 294.18 4.49428 314.269 4.24179C320.24 4.1408 325.578 4.11555 330.284 4.16604C335.041 4.21654 339.19 3.98931 342.732 3.48433C346.274 2.97936 349.26 1.81792 351.689 0ZM323.681 135.359C319.582 138.237 314.724 139.676 309.108 139.676C300.506 139.676 293.725 136.47 288.766 130.056C283.807 123.593 281.328 114.882 281.328 103.924C281.429 98.4702 282.112 93.6476 283.377 89.4563C284.642 85.265 286.464 81.705 288.842 78.7761C291.22 75.8473 294.105 73.6254 297.495 72.1105C300.885 70.5955 304.705 69.8381 308.956 69.8381C314.623 69.8381 319.506 71.1762 323.605 73.8526C327.704 76.529 330.866 80.4173 333.093 85.5175C335.319 90.5673 336.432 96.7027 336.432 103.924C336.432 111.246 335.319 117.583 333.093 122.936C330.917 128.289 327.78 132.43 323.681 135.359Z" fill="white"/>
<path d="M163.672 122.254L210.351 43.0239H238.587V159.37H212.021V80.0638L165.493 159.37H137.182V43.0239H163.672V122.254Z" fill="white"/>
<path d="M93.1315 159.37L41.9737 91.5772H28.1596V159.37H0V4.24179H28.1596V68.0201H35.2184L90.4749 4.24179H125.162L63.7575 74.9888L127.819 159.37H93.1315Z" fill="white"/>
</g>
</svg>
