<svg width="112" height="21" viewBox="0 0 112 21" fill="none" xmlns="http://www.w3.org/2000/svg">
<g id="Frame 7" style="mix-blend-mode:exclusion">
<g id="&#208;&#154;&#208;&#184;&#208;&#177;&#208;&#181;&#209;&#128;&#209;&#136;&#208;&#181;&#209;&#132;">
<path d="M8.71449 16.4261L3.92756 10.0696H2.63494V16.4261H0V1.88068H2.63494V7.8608H3.29545L8.46591 1.88068H11.7116L5.96591 8.51421L11.9602 16.4261H8.71449Z" fill="white"/>
<path d="M15.3151 12.946L19.683 5.51705H22.325V16.4261H19.8392V8.99006L15.4855 16.4261H12.8364V5.51705H15.3151V12.946Z" fill="white"/>
<path d="M32.9082 1.48296L33.8031 3.14489C33.4858 3.41951 33.1307 3.61837 32.7377 3.74148C32.3447 3.86459 31.8831 3.94508 31.3528 3.98296C30.8272 4.0161 30.2022 4.03977 29.4778 4.05398C28.6634 4.07292 27.9981 4.2268 27.482 4.51563C26.9659 4.80445 26.5706 5.24243 26.296 5.82955C26.0213 6.41193 25.8414 7.1553 25.7562 8.05966H25.8769C26.2178 7.39205 26.696 6.88305 27.3116 6.53267C27.9271 6.18229 28.6492 6.0071 29.4778 6.0071C30.3821 6.0071 31.1799 6.2107 31.8712 6.6179C32.5673 7.02036 33.1094 7.60512 33.4977 8.37216C33.8906 9.13921 34.0871 10.0672 34.0871 11.1563C34.0871 12.2784 33.8764 13.2514 33.455 14.0753C33.0336 14.8944 32.4347 15.5265 31.6582 15.9716C30.8864 16.4167 29.9702 16.6392 28.9096 16.6392C27.8537 16.6392 26.9352 16.4096 26.1539 15.9503C25.3774 15.4863 24.7761 14.8021 24.3499 13.8977C23.9285 12.9886 23.7178 11.8688 23.7178 10.5384V9.55824C23.7178 6.99195 24.196 5.07671 25.1525 3.8125C26.1089 2.5483 27.527 1.90436 29.4067 1.88068C29.9655 1.87121 30.465 1.86885 30.9053 1.87358C31.3504 1.87832 31.7387 1.85701 32.0701 1.80966C32.4015 1.76231 32.6809 1.65341 32.9082 1.48296ZM28.9238 14.5795C29.4494 14.5795 29.9039 14.4446 30.2874 14.1747C30.6709 13.9001 30.9645 13.5118 31.1681 13.0099C31.3764 12.5081 31.4806 11.9138 31.4806 11.2273C31.4806 10.5502 31.3764 9.97491 31.1681 9.50142C30.9598 9.0232 30.6638 8.65862 30.2803 8.40767C29.8968 8.15672 29.4399 8.03125 28.9096 8.03125C28.5119 8.03125 28.1544 8.10227 27.8371 8.24432C27.5199 8.38637 27.25 8.5947 27.0275 8.86932C26.8049 9.14394 26.6345 9.47775 26.5161 9.87074C26.3977 10.2637 26.3338 10.7159 26.3244 11.2273C26.3244 12.2547 26.5564 13.0715 27.0204 13.6776C27.4844 14.2789 28.1189 14.5795 28.9238 14.5795Z" fill="white"/>
<path d="M40.3042 16.6392C39.2104 16.6392 38.2658 16.4119 37.4704 15.9574C36.6797 15.4981 36.0712 14.8494 35.6451 14.0114C35.219 13.1686 35.0059 12.1766 35.0059 11.0355C35.0059 9.91335 35.219 8.92851 35.6451 8.08097C36.076 7.22869 36.6773 6.56582 37.4491 6.09233C38.2209 5.61411 39.1276 5.375 40.1692 5.375C40.8416 5.375 41.4761 5.4839 42.0727 5.70171C42.674 5.91477 43.2043 6.24621 43.6636 6.69602C44.1276 7.14584 44.4922 7.71875 44.7573 8.41477C45.0225 9.10606 45.155 9.92993 45.155 10.8864V11.6747H36.2133V9.94176H42.6906C42.6858 9.44934 42.5793 9.01137 42.3709 8.62784C42.1626 8.23959 41.8714 7.93419 41.4974 7.71165C41.1281 7.48911 40.6972 7.37784 40.2048 7.37784C39.6792 7.37784 39.2175 7.50568 38.8198 7.76137C38.4221 8.01231 38.112 8.34375 37.8894 8.75568C37.6716 9.16288 37.5603 9.61032 37.5556 10.098V11.6108C37.5556 12.2453 37.6716 12.7898 37.9036 13.2443C38.1356 13.6941 38.46 14.0398 38.8766 14.2813C39.2933 14.518 39.781 14.6364 40.3397 14.6364C40.7138 14.6364 41.0523 14.5843 41.3553 14.4801C41.6584 14.3712 41.9211 14.2126 42.1437 14.0043C42.3662 13.7959 42.5343 13.5379 42.6479 13.2301L45.0485 13.5C44.897 14.1345 44.6082 14.6884 44.182 15.1619C43.7606 15.6307 43.2209 15.9953 42.5627 16.2557C41.9046 16.5114 41.1517 16.6392 40.3042 16.6392Z" fill="white"/>
<path d="M46.5301 20.517V5.51705H49.0585V7.32102H49.2077C49.3402 7.05587 49.5273 6.77415 49.7687 6.47585C50.0102 6.17282 50.3369 5.91477 50.7489 5.70171C51.1608 5.4839 51.6864 5.375 52.3256 5.375C53.1684 5.375 53.9283 5.59044 54.6054 6.02131C55.2872 6.44744 55.827 7.07955 56.2247 7.91762C56.6272 8.75095 56.8284 9.77368 56.8284 10.9858C56.8284 12.1837 56.6319 13.2017 56.2389 14.0398C55.8459 14.8778 55.3109 15.517 54.6338 15.9574C53.9567 16.3977 53.1897 16.6179 52.3327 16.6179C51.7077 16.6179 51.1892 16.5137 50.7773 16.3054C50.3653 16.0971 50.0339 15.8461 49.783 15.5526C49.5367 15.2543 49.345 14.9725 49.2077 14.7074H49.1011V20.517H46.5301ZM49.0514 10.9716C49.0514 11.6771 49.1509 12.295 49.3497 12.8253C49.5533 13.3556 49.8445 13.7699 50.2233 14.0682C50.6068 14.3617 51.0708 14.5085 51.6153 14.5085C52.1835 14.5085 52.6594 14.357 53.0429 14.054C53.4264 13.7462 53.7152 13.3272 53.9094 12.7969C54.1082 12.2618 54.2077 11.6534 54.2077 10.9716C54.2077 10.2945 54.1106 9.69318 53.9165 9.16762C53.7223 8.64205 53.4335 8.23012 53.05 7.93182C52.6665 7.63352 52.1883 7.48438 51.6153 7.48438C51.0661 7.48438 50.5997 7.62879 50.2162 7.91762C49.8327 8.20644 49.5415 8.61127 49.3426 9.1321C49.1485 9.65294 49.0514 10.2661 49.0514 10.9716Z" fill="white"/>
<path d="M58.2301 5.51705H60.7088V14.3097H64.1392V5.51705H66.6179V14.3097H70.0483V5.51705H72.527V16.4261H58.2301V5.51705Z" fill="white"/>
<path d="M79.1542 16.6392C78.0604 16.6392 77.1158 16.4119 76.3204 15.9574C75.5297 15.4981 74.9212 14.8494 74.4951 14.0114C74.069 13.1686 73.8559 12.1766 73.8559 11.0355C73.8559 9.91335 74.069 8.92851 74.4951 8.08097C74.926 7.22869 75.5273 6.56582 76.2991 6.09233C77.0709 5.61411 77.9776 5.375 79.0192 5.375C79.6916 5.375 80.3261 5.4839 80.9227 5.70171C81.524 5.91477 82.0543 6.24621 82.5136 6.69602C82.9776 7.14584 83.3422 7.71875 83.6073 8.41477C83.8725 9.10606 84.005 9.92993 84.005 10.8864V11.6747H75.0633V9.94176H81.5406C81.5358 9.44934 81.4293 9.01137 81.221 8.62784C81.0126 8.23959 80.7214 7.93419 80.3474 7.71165C79.9781 7.48911 79.5472 7.37784 79.0548 7.37784C78.5292 7.37784 78.0675 7.50568 77.6698 7.76137C77.2721 8.01231 76.962 8.34375 76.7394 8.75568C76.5216 9.16288 76.4103 9.61032 76.4056 10.098V11.6108C76.4056 12.2453 76.5216 12.7898 76.7536 13.2443C76.9856 13.6941 77.31 14.0398 77.7266 14.2813C78.1433 14.518 78.631 14.6364 79.1897 14.6364C79.5638 14.6364 79.9023 14.5843 80.2053 14.4801C80.5084 14.3712 80.7711 14.2126 80.9937 14.0043C81.2162 13.7959 81.3843 13.5379 81.4979 13.2301L83.8985 13.5C83.747 14.1345 83.4582 14.6884 83.032 15.1619C82.6106 15.6307 82.0709 15.9953 81.4127 16.2557C80.7546 16.5114 80.0017 16.6392 79.1542 16.6392Z" fill="white"/>
<path d="M90.3304 20.1335V1.88068H92.9085V20.1335H90.3304ZM90.3304 16.6392C89.5302 16.6392 88.7987 16.5043 88.1358 16.2344C87.4729 15.9645 86.9 15.581 86.417 15.0838C85.9388 14.5866 85.5671 13.9948 85.302 13.3082C85.0416 12.617 84.9114 11.8523 84.9114 11.0142C84.9114 10.1761 85.0416 9.41146 85.302 8.72017C85.5671 8.02888 85.9388 7.43466 86.417 6.9375C86.9 6.43561 87.4729 6.04972 88.1358 5.77983C88.7987 5.50994 89.5302 5.375 90.3304 5.375H90.8773V16.6392H90.3304ZM90.3304 14.5653H90.65V7.44887H90.3304C89.8759 7.44887 89.4734 7.54356 89.123 7.73296C88.7774 7.91761 88.4862 8.17566 88.2494 8.5071C88.0174 8.83381 87.8399 9.2126 87.7168 9.64347C87.5984 10.0696 87.5392 10.5265 87.5392 11.0142C87.5392 11.6629 87.6457 12.2571 87.8588 12.7969C88.0719 13.3319 88.3844 13.7604 88.7963 14.0824C89.213 14.4044 89.7243 14.5653 90.3304 14.5653ZM92.9085 16.6392H92.3616V5.375H92.9085C93.7087 5.375 94.4402 5.50994 95.1031 5.77983C95.766 6.04972 96.3366 6.43561 96.8148 6.9375C97.2977 7.43466 97.6694 8.02888 97.9298 8.72017C98.195 9.41146 98.3276 10.1761 98.3276 11.0142C98.3276 11.8523 98.195 12.617 97.9298 13.3082C97.6694 13.9948 97.2977 14.5866 96.8148 15.0838C96.3366 15.581 95.766 15.9645 95.1031 16.2344C94.4402 16.5043 93.7087 16.6392 92.9085 16.6392ZM92.9085 14.5653C93.3678 14.5653 93.7703 14.473 94.1159 14.2884C94.4615 14.1037 94.7504 13.848 94.9824 13.5213C95.2191 13.1946 95.3967 12.8182 95.5151 12.392C95.6334 11.9612 95.6926 11.5019 95.6926 11.0142C95.6926 10.3655 95.5884 9.77131 95.3801 9.23154C95.1718 8.69176 94.8593 8.26089 94.4426 7.93892C94.0307 7.61222 93.5193 7.44887 92.9085 7.44887H92.5889V14.5653H92.9085Z" fill="white"/>
</g>
<path id="&#208;&#154;&#208;&#184;&#208;&#177;&#208;&#181;&#209;&#128;&#209;&#136;&#208;&#181;&#209;&#132;*" d="M106.555 11.483C106.019 11.483 105.592 11.0869 105.617 10.6133L105.652 9.9437C105.693 9.17313 104.689 8.71876 104.006 9.19897C103.495 9.5589 102.738 9.40356 102.457 8.88118L102.43 8.83056C102.196 8.39432 102.373 7.87218 102.839 7.62132L103.349 7.34721C104.081 6.95322 104.081 6.01269 103.349 5.6187L102.839 5.34459C102.373 5.09373 102.196 4.57159 102.43 4.13535L102.457 4.08473C102.738 3.56236 103.495 3.40701 104.006 3.76695C104.689 4.24715 105.693 3.79278 105.652 3.02221L105.617 2.35257C105.592 1.87902 106.019 1.48296 106.555 1.48296C107.09 1.48296 107.517 1.87795 107.493 2.35088L107.459 3.02397C107.42 3.79507 108.425 4.24864 109.108 3.76815C109.621 3.40761 110.379 3.56321 110.66 4.08648L110.686 4.1348C110.92 4.57122 110.743 5.09356 110.276 5.34402L109.765 5.61806C109.031 6.01182 109.031 6.95409 109.765 7.34785L110.276 7.62189C110.743 7.87235 110.92 8.39469 110.686 8.83111L110.66 8.87943C110.379 9.4027 109.621 9.55831 109.108 9.19776C108.425 8.71727 107.42 9.17084 107.459 9.94194L107.493 10.615C107.517 11.088 107.09 11.483 106.555 11.483Z" stroke="white" stroke-width="1.5"/>
</g>
</svg>
